# xmcd
#
# Track frame offsets: 
#        150
#        3147
#        18942
#        34067
#        54772
#        67777
#        82147
#        98060
#        113580
#        131407
#        147012
#        166105
#        180220
#        191937
#        198547
#        212957
#        233590
#        257542
#        276840
#        288180
#        301230
#
# Disc length: 4298 seconds
#
# Revision: 3
# Processed by: cddbd v1.5.1PL2 Copyright (c) Steve Scherf et al.
# Submitted via: ExactAudioCopy v0.95a5
#
DISCID=0c10c815
DTITLE=Rhonda Vincent and The Rage - Ragin' Live
DYEAR=2005
DGENRE=Bluegrass
TTITLE0=Introduction by Hank Janney
TTITLE1=Kentucky Borderline
TTITLE2=Drivin' Nails in My Coffin
TTITLE3=Missouri Moon
TTITLE4=Me Too
TTITLE5=One Step Ahead of the Blues
TTITLE6=Jolene
TTITLE7=Heartbreakin' Old Achin' Blues
TTITLE8=Road Rage
TTITLE9=Cheatin' Kind of Life
TTITLE10=You Can't Take it With You When You Go
TTITLE11=So Happy I'll Be
TTITLE12=Son Drop In
TTITLE13=The Martha White Theme
TTITLE14=Frankie Belle
TTITLE15=I've Forgotten You
TTITLE16=Ghost of a Chance
TTITLE17=The Last Best Place
TTITLE18=Bluegrass Express
TTITLE19=Muleskinner Blues
TTITLE20=Homecoming
EXTD=
EXTT0=
EXTT1=
EXTT2=
EXTT3=
EXTT4=
EXTT5=
EXTT6=
EXTT7=
EXTT8=
EXTT9=
EXTT10=
EXTT11=
EXTT12=
EXTT13=
EXTT14=
EXTT15=
EXTT16=
EXTT17=
EXTT18=
EXTT19=
EXTT20=
PLAYORDER=
